<svg xmlns="http://www.w3.org/2000/svg" viewBox="0 0 200 200">
  <path d="M100 6 C58 6 30 36 30 70 C30 90 40 108 56 116 L48 136 H152 L144 116 C160 108 170 90 170 70 C170 36 142 6 100 6Z" fill="#e0e0e0"/>
  <rect x="62" y="126" width="76" height="18" rx="4" fill="#e0e0e0"/>
  <ellipse cx="74" cy="64" rx="16" ry="18" fill="#0a0a1a"/>
  <ellipse cx="126" cy="64" rx="16" ry="18" fill="#0a0a1a"/>
  <path d="M92 92 L100 104 L108 92Z" fill="#0a0a1a"/>
  <rect x="82" y="126" width="5" height="18" fill="#0a0a1a"/>
  <rect x="98" y="126" width="5" height="18" fill="#0a0a1a"/>
  <rect x="114" y="126" width="5" height="18" fill="#0a0a1a"/>
  <line x1="28" y1="154" x2="172" y2="194" stroke="#e0e0e0" stroke-width="18" stroke-linecap="round"/>
  <line x1="172" y1="154" x2="28" y2="194" stroke="#e0e0e0" stroke-width="18" stroke-linecap="round"/>
</svg>