<svg xmlns="http://www.w3.org/2000/svg" viewBox="0 0 100 100">
  <!-- Left: acid on surface -->
  <rect x="8" y="5" width="12" height="30" rx="2" transform="rotate(-25 14 20)" fill="#e0e0e0"/>
  <rect x="5" y="4" width="18" height="5" rx="1.5" transform="rotate(-25 14 6)" fill="#e0e0e0"/>
  <circle cx="22" cy="40" r="2.5" fill="#e0e0e0"/>
  <circle cx="20" cy="46" r="2" fill="#e0e0e0"/>
  <path d="M6 56C10 50 18 48 28 52C32 54 36 52 40 54L40 62L6 62Z" fill="#e0e0e0"/>
  <rect x="4" y="62" width="38" height="6" rx="1" fill="#e0e0e0"/>
  <!-- Right: acid on hand -->
  <rect x="80" y="5" width="12" height="30" rx="2" transform="rotate(25 86 20)" fill="#e0e0e0"/>
  <rect x="77" y="4" width="18" height="5" rx="1.5" transform="rotate(25 86 6)" fill="#e0e0e0"/>
  <circle cx="78" cy="40" r="2.5" fill="#e0e0e0"/>
  <circle cx="80" cy="46" r="2" fill="#e0e0e0"/>
  <path d="M56 82C56 74 60 64 66 58C68 56 70 55 72 57L72 60C74 57 76 58 76 61L76 64C78 61 80 62 80 65L80 76C80 84 74 90 66 92L58 94C54 95 52 92 52 88Z" fill="#e0e0e0"/>
</svg>