<svg xmlns="http://www.w3.org/2000/svg" viewBox="0 0 200 180">
  <!-- Left scene: acid corroding a surface -->
  <g>
    <g transform="rotate(-30 32 36)">
      <rect x="22" y="6" width="20" height="52" rx="4" fill="#e0e0e0"/>
      <rect x="16" y="2" width="32" height="10" rx="3" fill="#e0e0e0"/>
    </g>
    <circle cx="44" cy="72" r="5" fill="#e0e0e0"/>
    <circle cx="40" cy="84" r="3.5" fill="#e0e0e0"/>
    <path d="M8 108 C14 96 30 92 48 98 C56 100 64 98 72 102 L72 116 L8 116Z" fill="#e0e0e0"/>
    <rect x="4" y="116" width="72" height="14" rx="2" fill="#e0e0e0"/>
  </g>
  <!-- Right scene: acid corroding skin/hand -->
  <g>
    <g transform="rotate(30 168 36)">
      <rect x="158" y="6" width="20" height="52" rx="4" fill="#e0e0e0"/>
      <rect x="152" y="2" width="32" height="10" rx="3" fill="#e0e0e0"/>
    </g>
    <circle cx="156" cy="72" r="5" fill="#e0e0e0"/>
    <circle cx="158" cy="84" r="3.5" fill="#e0e0e0"/>
    <path d="M116 148 C116 136 122 120 134 110 C138 106 142 104 146 108 L146 114 C150 108 154 110 154 116 L154 122 C158 116 162 118 162 124 L162 142 C162 156 152 166 140 170 L126 174 C118 176 114 170 114 162Z" fill="#e0e0e0"/>
  </g>
</svg>